# xmcd CD database file
#
# Track frame offsets:
#	150
#	20312
#	39525
#	56452
#	78555
#	96260
#	112107
#	143675
#	167735
#	179927
#	200860
#	220762
#	242990
#
# Disc length: 3431 seconds
#
# Revision: 1
# Processed by: cddbd v1.5.2PL0 Copyright (c) Steve Scherf et al.
# Submitted via: CDex 1.51
#
DISCID=c10d650d
DTITLE=Eddie Taylor with Louis Myers, Dave Myers and Odie Payne, Jr. - Live In Japan,1977
DYEAR=1900
DGENRE=Blues
TTITLE0=Hoy Hoy
TTITLE1=Goin' Down Slow
TTITLE2=Bad Boy
TTITLE3=Signals Of Love
TTITLE4=There'll Be A Day
TTITLE5=Crossroads
TTITLE6=I Don't Know
TTITLE7=Tin Pan Alley
TTITLE8=Baby Please Don't Go
TTITLE9=My Sometimes Baby
TTITLE10=Blow Wind Blow
TTITLE11=You're Gonna Look For Me (And I'll Be Hard To Find)
TTITLE12=Kind Hearted Woman
EXTD=
EXTT0=
EXTT1=
EXTT2=
EXTT3=
EXTT4=
EXTT5=
EXTT6=
EXTT7=
EXTT8=
EXTT9=
EXTT10=
EXTT11=
EXTT12=
PLAYORDER=
